<?xml version="1.0" encoding="utf-8"?>
<!-- Generator: Adobe Illustrator 24.3.0, SVG Export Plug-In . SVG Version: 6.00 Build 0)  -->
<svg version="1.1" id="Layer_1" xmlns="http://www.w3.org/2000/svg" xmlns:xlink="http://www.w3.org/1999/xlink" x="0px" y="0px"
	 viewBox="0 0 870 1160" style="enable-background:new 0 0 870 1160;" xml:space="preserve">
<style type="text/css">
	.st0{fill:#3BB67E;}
	.st1{fill:#FEFEFE;}
	.st2{fill:#008669;}
	.st3{fill:#008769;}
	.st4{fill:#008768;}
	.st5{fill:#02E971;}
	.st6{fill:#006E3B;}
</style>
<g>
	<g>
		<path class="st0" d="M0.2,436c0-0.3,0-0.7,0-1c1.6-1.5,3.6-1.6,5.6-1.6c45.3,0,90.6-0.2,135.8,0.1c0.3,0,0.7,0.1,1,0.1
			c0.5,0.1,1.1,0.2,1.6,0.3c2.4,0.9,3.9,3,5.7,4.7c37.9,37.8,75.7,75.8,113.6,113.6c7.9,7.9,15.6,15.9,23.6,23.7
			c1.4,1.4,3,2.7,3.8,4.6c0.2,0.6,0.4,1.1,0.5,1.7c0.4,3.5,0.3,7,0.3,10.5c0,40.8,0,81.6,0,122.3c0,2.8,0.2,5.7-0.5,8.4
			c-0.2,0.5-0.4,1.1-0.8,1.5c-2.7,0.9-3.9-1.3-5.3-2.7c-8.1-7.9-16.1-16-24.1-24c-36.3-36.3-72.6-72.6-108.9-108.9
			c-1.3-1.3-2.4-2.7-4.3-3.9c-0.9,2.1-0.7,4.1-0.7,6c0.4,42.5,0.1,85,0.1,127.5c0,4.4,1.5,7.5,4.5,10.5
			c44.1,44,88.2,88.1,132.3,132.1c1.3,1.3,2.3,4.2,5.2,2.1c0.6-0.1,1,0.1,1.3,0.6c0.9,1.8,0.8,3.6,0.2,5.4c-0.9,2-2.6,3.4-4.1,5
			c-45,45-89.9,90-134.9,134.9c-1.8,1.8-3.6,5.2-6.3,4.1c-2.7-1.1-1.6-4.8-1.6-7.3c-0.1-43-0.1-85.9,0.1-128.9
			c0-5.1-1.4-8.5-5.1-12.1c-35.9-35.5-71.4-71.3-107.2-106.9c-9.3-9.3-18.8-18.3-27.8-28c-1.5-1.6-2.9-3.2-3.2-5.5
			c0.7-2.2,2.7-1.8,4.2-1.7c38.5,1.1,77,0.2,115.4,0.4c6.4,0,12.9,0.3,19.4-0.9c-0.8-2.1-2.5-3.3-3.9-4.7
			C92.4,674.5,49,631.2,5.7,587.8c-2.1-2.1-4.3-4.2-5.6-7c0-0.3,0-0.7,0-1c1.8-1.6,4-1.3,6.2-1.3c43.5,0,87,0,130.4,0
			c1.6,0,3.3-0.2,5.1,0.7c-1.5-2.1-3.3-3.6-5-5.3c-43.6-43.6-87.3-87.3-131-131C3.7,440.9,1.6,438.8,0.2,436z"/>
		<path class="st1" d="M1.1,725.2c7.9,9.4,16.9,17.6,25.5,26.3c22.8,23,45.8,45.9,68.7,68.8c15.3,15.3,30.5,30.7,46.1,45.8
			c2.8,2.7,3.8,5.3,3.8,9.1c-0.1,44.5-0.1,89-0.1,133.5c0,1.6,0,3.2,0,4.8c0.4,0.3,0.8,0.5,1.2,0.8c6.5-6.7,13-13.5,19.6-20.2
			c40.6-40.7,81.3-81.4,122-122.1c0.7-0.7,1.5-1.3,2.2-2c0.2,0.2,0.4,0.5,0.6,0.7c1.1,2.5,0.7,5.3,0.7,7.9c0,42.5,0,84.9,0,127.4
			c0,2.3-0.6,4.7,1.6,6.5c2.4,1.1,4.9,0.8,7.4,0.8c41,0,82,0,122.9,0c2.8,0,5.7-0.2,8.5,0.3c3,0.7,3.3,2.4,1.6,4.7
			c-1,1.4-2.2,2.5-3.4,3.7c-44.2,44.4-88.7,88.8-133,133.2c-1.8,1.8-3.6,3.5-5.8,4.6c-0.7,0-1.3,0-2,0c-2.8-1.3-4.9-3.4-7-5.6
			c-44.1-44.2-88.3-88.3-132.4-132.5c-1.2-1.2-2.3-2.4-3.8-3.6c0.7,2.3,0.5,4.4,0.5,6.6c0,42.5,0,84.9,0,127.4
			c0,2.6,0.6,5.4-1.3,7.7c-0.3,0-0.7,0-1,0c-8.9-7.1-16.4-15.5-24.4-23.5c-15.6-15.7-31.4-31.2-47-46.9
			c-22.9-23.2-46.2-46.1-69.1-69.3c-1.3-1.3-2.5-2.7-3.5-4.2c0-0.7,0-1.3,0-2c1.2-2.2,3-3.9,4.8-5.7
			c42.8-42.9,85.7-85.8,128.6-128.7c2.5-2.5,5-4.8,7.2-7.6c-1.8-1.1-3.5-0.6-5-0.6c-42.6,0-85.3,0-127.9-0.1c-2.6,0-5.4,0.6-7.7-1.3
			c0-48.3,0-96.7,0-145C0.7,724.3,1,724.4,1.1,725.2z"/>
		<path class="st0" d="M869.9,580c0,48.3,0,96.7,0,145c-1.9,1.7-4.3,1.6-6.6,1.6c-43.2,0-86.5,0-129.7,0c-1.8,0-3.7,0-5.4-0.6
			c-2.4-1.3-1.2-2.3,0.5-2.9c2.2-0.8,4.6-0.5,6.9-0.5c41.1,0,82.3,0,123.4,0c1.6,0,3.3,0.5,5.4-0.7
			c-45.4-45.4-90.7-90.7-136.2-136.3c-1.2,2-0.7,3.8-0.7,5.5c0,40.1,0,80.3,0,120.4c0,2.3,0.3,4.7-0.6,6.9c-0.5,1.4-1.4,2.5-2.7,0.5
			c-1.1-2.7-0.7-5.6-0.7-8.4c0-39.8,0-79.5,0-119.3c0-1.7-0.1-3.3,0-5c0.1-3.4-1.6-4.8-4.9-4.7c-1.8,0-3.7,0-5.5,0
			c-41.2,0-82.5,0-123.7,0c-2.8,0-5.7,0.3-8.4-0.7c-0.6-0.3-1.1-0.7-1.5-1.3c-1.1-2.2-0.9-4.5-0.9-6.9c0-43.5,0-86.9,0-130.4
			c0-1.8,0.1-3.7,0.4-5.5c1.6-4.8,5.5-7.9,8.9-11.2c17.7-17.4,35.1-35.1,52.7-52.6c15.8-15.7,31.5-31.6,47.4-47.2
			c10.9-10.7,21.2-22.1,32.5-32.5c4.4-4,5.1-4,9.5,0.1c13.3,12.6,26,25.8,38.9,38.7c11.8,11.7,23.5,23.5,35.3,35.3
			c11.9,11.9,23.7,23.8,35.7,35.6c8,8,15.9,16.1,24,24c2.2,2.1,6,4.6,4.9,7.5c-1.3,3.1-5.7,1.6-8.7,1.6c-42,0.1-84,0-125.9,0.1
			c-1.8,0-3.6-0.5-5.4,0.4c0.7,1.9,2.3,2.9,3.5,4.1c44.1,44.2,88.3,88.4,132.5,132.5C866.6,575.4,868.6,577.4,869.9,580z"/>
		<path class="st0" d="M288.1,0.1c97.3,0,194.6,0,291.9,0c1.5,1.6,1.6,3.6,1.6,5.6c0,44.7,0.1,89.4,0,134.1c0,0.7-0.1,1.3-0.2,2
			c-0.1,0.5-0.3,1.1-0.5,1.6c-1.5,1.9-3,0.7-4.3-0.3c-1.5-1.1-2.7-2.5-4-3.8C532.4,99,492,58.9,451.9,18.5
			c-4.2-4.2-8.3-8.6-12.8-12.6c-1.2-1.1-2.2-2.6-4.1-2.5c-2.1,0.5-3.3,2.2-4.7,3.6c-44.8,44.8-89.6,89.6-134.4,134.5
			c-1.7,1.7-3.9,3.2-4.3,6c0.1,45.3,0,90.6,0,135.8c0,1.7,0,3.3-0.4,5c-0.1,0.6-0.4,1.1-0.7,1.6c-1.9,1.2-3.1-0.4-4.3-1.3
			c-1.4-1.1-2.6-2.5-3.9-3.8c-43.3-43.3-86.6-86.6-129.9-129.9c-1.6-1.6-3.3-3.1-5-5.4c0,44.2,0,87.9-0.1,131.6
			c0,2.5,1.5,5.8-2.3,7.2c-1.9-2.3-1.2-5.1-1.2-7.7c0-42.6-0.1-85.2,0.1-127.8c0-5.5-1.7-9.3-5.5-13.1C94.1,95.6,49.9,51.3,5.7,7
			C3.8,5.1,1,3.6,1.2,0.2c48.3,0,96.6,0,144.9,0c1.9,2.3,1.3,5.1,1.3,7.7c0,41.9,0,83.9,0,125.8c0,1.8-0.4,3.6,0.5,5.7
			c5.5-4.7,10.3-9.9,15.3-14.9c22.6-22.8,45.4-45.4,68-68.1C249,38.5,267,20.7,284.9,2.8C286,1.7,287.2,1.1,288.1,0.1z"/>
		<path class="st0" d="M869.9,145.1c0,48.3,0,96.7,0,145c-2.4,2.1-5.3,1.6-8.1,1.6c-29,0-57.9,0-86.9,0c-61,0-122,0-183,0
			c-48.4,0-96.9,0-145.3,0c-3,0-6,0.1-9-0.2c-0.6-0.1-1.2-0.3-1.8-0.5c-0.5-0.3-0.9-0.7-1.2-1.2c-0.2-0.8,0.1-1.6,0.6-2.3
			c9.6-9.2,18.9-18.7,28.3-28.1c37.8-37.7,75.4-75.5,113.2-113.2c0.5-0.5,1-0.9,1.5-1.3c0.5-0.4,1.2-0.4,1.7-0.8l-0.1,0.1
			c5.7-7.9,13.3-13.9,20-20.8c15.8-16.2,31.9-32.1,47.9-48.1c19.6-19.7,39.3-39.3,59-58.9c4.5-4.5,8.8-9.1,13.4-13.4
			c1.2-1.1,2.5-2.7,4.3-1.9c1.7,0.8,1.6,2.8,1.7,4.4c0.1,1.8,0.1,3.7,0.1,5.5c0,41.8,0,83.6,0,125.4c0,7.4,0,7.4,7.5,7.4
			c42.6,0,85.2,0,127.8,0C864.5,143.7,867.5,143,869.9,145.1z"/>
		<path class="st1" d="M435.1,290c94.4,0,188.7,0,283.1,0.1c50.6,0,101.2,0,151.8,0c0,96.7,0,193.3,0,290
			c-35.5-35.5-71-71-106.6-106.4c-12.6-12.5-25.1-25-38.5-38.4c48.6,0,96,0,144.4,0c-5-6.6-10.6-11.4-15.8-16.5
			c-22.8-22.9-45.6-45.6-68.5-68.4c-19.1-19.1-38.2-38.1-57.2-57.3c-2-2-3-2.6-5.4-0.2c-24.3,24.4-48.8,48.6-73.2,72.9
			c-22.6,22.6-45.1,45.3-67.6,68c-0.5,0.5-1,0.8-1.5,1.3c-0.2-0.2-0.4-0.4-0.5-0.6c-1.1-2.4-0.7-4.9-0.7-7.4c0-42.5,0-84.9,0-127.4
			c0-1.6,0.4-3.3-0.3-5c-1.7,0.6-2.6,2.1-3.7,3.3c-44.3,44.3-88.6,88.6-132.9,132.8c-1.9,1.9-3.4,4.7-6.8,4.5
			c-0.2-0.2-0.4-0.5-0.6-0.7c-0.3-0.6-0.5-1.1-0.6-1.8c-0.4-2.3-0.3-4.6-0.3-7c0-42.2,0-84.4,0-126.6c0-2.5-0.2-5,0.5-7.4
			C434.2,291,434.5,290.5,435.1,290z"/>
		<path class="st0" d="M435.1,290c0,0.4-0.1,0.8-0.1,1.1c-1.8,1.6-4.1,1.2-6.2,1.2c-43.1,0-86.3,0-129.4,0c-1.9,0-4,0.6-5.6-1.1
			c44.8,44.9,89.6,89.8,134.5,134.7c2.5,2.5,5.1,4.8,6.7,8c0,0.4,0.1,0.8,0.1,1.2c-1.9,1.8-4.3,1.6-6.6,1.6
			c-45.4-0.1-90.8-0.1-136.3-0.1c-45.9,0-91.8,0-137.7,0.1c-3.2,0-6.4,0.3-9.2-1.6l-0.2-0.2c-2.1-1-3.8-2.6-5.4-4.3
			c-45-45.1-90.1-90.1-135.1-135.1c-1.7-1.7-3.2-3.4-4.3-5.5c0-48.3,0-96.7,0-145c1.9-0.5,2.7,1,3.7,2c11.4,11.4,23,22.6,34.3,34.2
			c14.9,15.3,30.3,30,45.2,45.1c19.8,20.2,40.1,39.9,59.8,60.2c0.8,0.8,1.5,1.9,2.8,2c2.4,1.5,4.1,3.9,6.1,5.9
			c44.8,44.8,89.7,89.6,134.5,134.5c0.5,0.5,0.9,1,1.9,1.4c0.8-1.6,0.4-3.4,0.4-5.1c0-42.6,0-85.2,0-127.8c0-2.4-0.5-5,1-7.3
			c0.1-0.1,0.3-0.2,0.4-0.3c1.9-1.7,4.3-1.5,6.6-1.5c43.7,0,87.4,0,131.1,0C430.5,288.4,433,288.3,435.1,290
			C435.1,290.1,435.1,290,435.1,290z"/>
		<path class="st1" d="M725,1159.8c-48.6,0-97.3,0-145.9,0c-2.1-1.1-3.8-2.6-5.5-4.3c-45-45-89.9-90-134.9-134.9
			c-2.6-2.6-4.5-5.3-5-9c-0.4-40.8-0.1-81.5-0.2-122.3c0-5.6-0.5-11.3,0.4-16.9c1.9-4.2,4.2-1.5,5.7,0.1c5.1,5,10.3,9.9,15.3,15
			c26.7,26.9,53.6,53.7,80.4,80.5c13.7,13.6,27.1,27.5,41,40.8c3.7,3.5,4.9,7.6,4.9,12.5c-0.1,42.6-0.1,85.3,0,127.9
			c0,1.8-0.3,3.6,0.3,5.8c1.8-0.6,2.8-2.2,4-3.3c44.3-44.3,88.6-88.6,132.9-132.8c1.8-1.8,3.2-4.9,6.8-4.1c0.4,0.5,0.6,1,0.7,1.5
			c0.4,2.4,0.4,4.8,0.3,7.2c-0.1,42.8,0,85.6,0,128.4C726.3,1154.8,726.9,1157.5,725,1159.8z"/>
		<path class="st1" d="M869.9,145.1c-46.5,0-92.9-0.1-139.4,0.1c-4.7,0-5.7-1.3-5.6-5.8C725.1,94.6,725,49.8,725,5
			c0-1.1,0-2.2,0-4.7c-4.3,4.2-7.8,7.5-11.2,10.9C686,39.1,658.2,67,630.3,94.9c-15.8,15.8-31.6,31.6-47.5,47.4
			c-0.8,0.8-1.5,1.8-2.8,1.8c0-48,0-96,0-144c95.3,0,190.6,0,285.9-0.1c3.4,0,4.1,0.7,4.1,4.1C869.9,51.1,869.9,98.1,869.9,145.1z"
			/>
		<path class="st1" d="M145.2,288.9c-6.2-3.4-10.2-9.2-15.1-14c-27.4-27.2-54.7-54.6-82-81.9c-16-16-31.9-32-47.9-48
			c0-47,0-94,0.1-141c0-1.3-1.1-3.1,0.9-4c5.9,7.8,13.3,14.1,20.2,21c40.2,40.4,80.5,80.6,120.9,120.8c2,2,2.9,4.1,2.9,7
			c-0.1,44.6-0.1,89.2,0,133.8c0,1.8,0.1,3.7,0.2,5.5c0.2,0.2,0.3,0.4,0.2,0.5C145.4,288.8,145.3,288.9,145.2,288.9z"/>
		<path class="st1" d="M726.9,724.7c7.6,0.1,15.3,0.2,22.9,0.2c40,0,80,0,120.1,0c0,48.3,0,96.7,0,145c-1.9,1.7-4.3,1.6-6.6,1.6
			c-43.9,0-87.7,0-131.6,0c-2.3,0-4.7,0.1-6.7-1.3c-1.8-1.9-1.4-4.4-1.4-6.6c0-45.1-0.1-90.1,0-135.1c0-0.6,0.1-1.2,0.2-1.8
			c0.1-0.6,0.4-1.1,0.8-1.6C725.3,724.3,726.1,724.2,726.9,724.7z"/>
		<path class="st0" d="M434.9,1013.8c0.4,2.2,2.2,3.2,3.6,4.6c45.1,45.2,90.3,90.3,135.4,135.5c1.8,1.8,4.2,3.3,5.1,5.9
			c-96,0-191.9,0-287.9,0c5.1-7.1,11.9-12.7,18.1-18.9c40.6-40.8,81.4-81.5,122.1-122.2c1.1-1.1,2.8-1.9,2.7-3.9
			C433.8,1014,434.2,1013.8,434.9,1013.8z"/>
		<path class="st2" d="M725.1,1022.8c0-2.3,0-4.6,0-6.9c0.2-2.5,1.8-4.2,3.4-5.8c45.5-45.5,91-91,136.5-136.5
			c1.3-1.3,2.5-3.3,4.9-2.8c0,48,0,96,0,144c-1.1,2.2-2.7,4.1-4.5,5.9c-44.4,44.4-88.8,88.8-133.2,133.2c-1.7,1.7-3.4,4.9-5.9,3.7
			c-2.1-1-0.8-4.2-0.8-6.5c-0.1-41,0-81.9-0.1-122.9C725.5,1026.4,725.8,1024.6,725.1,1022.8z"/>
		<path class="st0" d="M725.1,1022.8c1.4,1.8,0.7,3.9,0.7,5.8c0,41,0,82,0,123c0,1.8,0,3.6,0,6.6c2.2-2.1,3.6-3.3,4.9-4.7
			c45-45,90-90,135-135c1.3-1.3,2.7-2.4,4.1-3.6c0,47.2,0,94.3,0.1,141.5c0,3-0.6,3.6-3.6,3.6c-47.1-0.1-94.3-0.1-141.4-0.1
			c0-44.7,0-89.4,0-134C724.9,1024.8,725.1,1023.8,725.1,1022.8z"/>
		<path class="st0" d="M869.9,870.9c-13.8,13.7-27.7,27.3-41.5,41c-33.1,33-66.1,66.1-99.1,99.2c-1.5,1.5-2.8,3.2-4.2,4.9
			c-0.2-0.2-0.3-0.4-0.3-0.7c-0.9-0.9-1.6-2-1.7-3.3c0.7-41.7,0.1-83.4,0.3-125.2c0-2.8-0.4-5.6-0.7-8.4c-0.3-2.8-0.4-5.7,1.6-8.1
			c0.3-0.2,0.5-0.3,0.8-0.5c48.3,0,96.5,0.1,144.8,0.1C869.9,870.2,869.9,870.5,869.9,870.9z"/>
		<path class="st1" d="M0.2,290.1c31.5,31.5,63,62.9,94.5,94.4c16.8,16.8,33.5,33.7,50.3,50.5c-48.3,0-96.5,0.1-144.8,0.1
			C0.2,386.7,0.2,338.4,0.2,290.1z"/>
		<path class="st0" d="M0.2,869.9c47.8,0,95.5,0,144.2,0c-4.6,5.9-9.7,10.4-14.5,15.2c-35.3,35.3-70.6,70.6-105.8,106
			c-6.9,6.9-13.8,13.8-20.7,20.7c-0.9,0.9-1.8,1.9-3.2,2.1C0.2,965.8,0.2,917.9,0.2,869.9z"/>
		<path class="st0" d="M0.2,1015.8c7.4,5.1,12.9,12.1,19.2,18.4c31.1,31,62,62.1,93.1,93.1c9.2,9.2,18.5,18.3,27.7,27.6
			c1.5,1.5,3.5,2.6,3.9,4.9c-46.8,0-93.6,0-140.4,0.1c-3,0-3.6-0.6-3.6-3.6C0.3,1109.5,0.2,1062.7,0.2,1015.8z"/>
		<path class="st3" d="M0.2,436c3.1,3,6.3,5.9,9.4,8.9c43.6,43.6,87.1,87.1,130.7,130.7c1.1,1.1,2.6,2,3.2,4.4
			c-47.9,0-95.6,0-143.3,0C0.2,532,0.2,484,0.2,436z"/>
		<path class="st0" d="M145.2,1159.8c0-47.8,0-95.6,0-143.3c1.6-0.8,2.1,0.7,2.8,1.4c46.5,46.5,93.1,93,139.6,139.5
			c0.6,0.6,1.7,1.2,1.5,2.4C241.2,1159.8,193.2,1159.8,145.2,1159.8z"/>
		<path class="st4" d="M1.1,725.2c-0.3,0-0.6-0.1-0.9-0.3c0-48,0-96,0-144c12.5,12.4,25.1,24.7,37.6,37.2
			c33.9,33.9,67.8,67.8,101.6,101.7c0.8,0.8,1.6,1.6,2.5,2.5c0.6,0.6,1.3,1.3,0.6,2.1c-0.3,0.4-1.2,0.4-1.9,0.4
			c-42.9,0-85.7,0-128.6,0.2C8.4,724.9,4.7,723.2,1.1,725.2z"/>
		<path class="st2" d="M288.1,0.1c-3.1,6.3-8.9,10.1-13.6,15c-11.7,12-23.6,23.7-35.5,35.6c-12.4,12.4-24.9,24.8-37.3,37.2
			c-11.5,11.5-22.9,23-34.4,34.5c-6.7,6.8-13.5,13.5-21.2,21.2c0-48.6,0-96,0-143.4C193.5,0.1,240.8,0.1,288.1,0.1z"/>
		<path class="st1" d="M145.3,435.1c96.6,0,193.2,0,289.8,0L435,435c2.1,2.3,1.4,5,1.4,7.6c0,42.3,0,84.6,0,126.8
			c0,1.8-0.3,3.6,0.4,5.9c4.9-3.3,8.6-7.7,12.6-11.8c25.2-25.2,50.4-50.3,75.6-75.5c16.7-16.7,33.3-33.5,50.2-50.1
			c1.3-1.3,2.4-3.3,4.9-2.9l-0.1-0.1c0,48.4,0,96.7,0.1,145.1c-2.4,2.1-5.4,1.4-8.1,1.4c-41.6,0-83.3,0-124.9,0c-1.5,0-3,0-4.5,0
			c-5.4,0.1-5.9,0.5-5.9,6.1c-0.1,20.8,0,41.6,0,62.5c0,22,0,44,0,66c0,7.5,0,7.5,7.3,7.5c42.3,0,84.6,0,126.9,0
			c2.9,0,6.9-1.3,8.2,1.9c1.4,3.3-2.5,5-4.5,7c-30,30.3-60.3,60.3-90.3,90.5c-14.1,14.2-28.5,28-42.3,42.5c-3.8,4-8.2,5.8-13.8,5.8
			c-43.8-0.1-87.6-0.1-131.4-0.1c-2.3,0-4.7,0.4-6.6-1.4l0.1,0.1c-0.1-2-0.1-4.1-0.2-6.1c-1.6-1.8-1.2-4.1-1.2-6.2
			c0-42.1,0-84.3,0-126.4c0-2.1-0.3-4.4,1.2-6.2c0.1-18.4,0.2-36.9,0.2-55.3c0-29.9,0-59.8,0-89.7c2.5-2,5.4-1.4,8.2-1.4
			c42.5,0,84.9,0,127.4,0c1.6,0,3.3,0.2,5.7-0.3c-46.9-46.6-93.1-92.9-139.6-139.1c-0.8,2.1-0.4,3.7-0.4,5.4c0,42.5,0,84.9,0,127.4
			c0,2.8,0.6,5.7-1.4,8.2c-27.3-27.3-54.6-54.5-81.8-81.8C187.3,477.2,166.3,456.2,145.3,435.1z"/>
		<path class="st2" d="M289.3,863.8c-0.1,1.1-0.2,2.3-0.4,3.5c-2.1-0.6-3.1-2.2-4.3-3.5c-45.1-45.1-90.2-90.2-135.4-135.3
			c-2.3-2.3-3.2-4.7-3.2-7.9c0.1-40.8,0.1-81.6,0.1-122.5c0-5.1,0-10.3,0-15.3c1.7-0.4,2.3,0.8,3,1.6c46.1,46,92.1,92.1,138.2,138.2
			c0.7,0.7,1.3,1.5,1.9,2.3c0.6,1.1,0.4,2.3,0.4,3.4c0,44.2,0,88.3,0,132.5C289.6,861.8,289.7,862.8,289.3,863.8z"/>
		<path class="st5" d="M289.3,863.8c0-46.3-0.1-92.6-0.1-138.9c0.2,0,0.5,0,0.7,0c0.1,25,0.2,50,0.2,74.9c0,21.3-0.1,42.6-0.2,63.9
			h-0.3L289.3,863.8z"/>
		<path class="st0" d="M290.1,869.8c46.8,0,93.6,0,140.4,0.1c4,0,6.5-1.8,8.9-4.3c25.3-25.3,50.5-50.7,75.8-76
			c20.7-20.7,41.5-41.4,62.2-62.1c0.5-0.5,1-1.2,2.2-2.6c-3.2,0-5.4,0-7.6,0c-44,0-87.9-0.1-131.9,0.1c-4.2,0-5.2-1.1-5.2-5.2
			c0.2-45.1,0.1-90.3,0.1-135.4c0-3.2,0.3-4.6,4.2-4.6c47,0.2,93.9,0.1,140.9,0.1l-0.1-0.1c0.4,0.5,0.4,1,0,1.5
			c-1.2,2-2.7,3.8-4.3,5.4c-45.2,45-90.1,90.3-135.4,135.2c-0.1,0.1-0.1,0.3-0.1,0.5c43.6,0,87.2,0,130.8,0c7.6,0,7.6,0,7.7-7.8
			c0-41.6,0-83.3,0-124.9c0-2.6-0.5-5.4,1.1-7.8c0.9-0.8,1.8-0.7,2.8-0.2c1.2,0.6,2.1,1.6,3.1,2.5c45.2,45.2,90.4,90.4,135.6,135.7
			c1.4,1.4,4.3,2.7,2.3,5.7c-4,2.6-8.4,1.5-12.6,1.1c-3.3-0.3-6.6-0.6-10-0.6c-36,0-72,0-107.9,0c-2.4,0-4.9-0.4-8,1.1
			c45.7,45.8,91.1,91.2,136.9,136.9c1-2.1,0.6-3.9,0.6-5.6c0-41.8,0-83.6,0.1-125.5c0-2.5-1.4-5.8,2.2-7.4c0.1,11.5,0.2,23,0.2,34.5
			c0.1,36.5,0.1,72.9,0.1,109.4c-0.1,0.1-0.3,0.3-0.4,0.4c-2.2,1.6-4.8,1-7.3,1c-42.6,0-85.2,0-127.8,0c-1.6,0-3.2-0.2-5.2,0.2
			c3.2,4.3,7.2,7.3,10.6,10.9c14.1,14.4,28.5,28.4,42.6,42.7c11.6,11.7,23.4,23.2,35,34.9c15.4,15.6,31.1,31,46.5,46.7
			c1.9,1.9,3.7,3.8,4.9,6.2c0.9,0.6,0.9,1.5,0.8,2.4c-15.1,15-30.2,29.9-45.2,44.9c-32.3,32.3-64.6,64.6-96.9,96.9
			c-0.6,0.6-1.2,1.1-2.1,1.8c-1.1-1.8-0.6-3.6-0.6-5.3c0-44.6-0.1-89.3,0-133.9c0-3.4-0.9-6-3.4-8.4C553.6,988,530.6,965,507.5,942
			c-22.4-22.4-44.8-44.9-67.2-67.3c-1.6-1.6-2.9-3.6-5.3-4c-2.6,2-5.7,1.4-8.7,1.4c-41.1,0-82.2,0-123.3,0c-1.7,0-3.3,0.1-5,0
			c-3.8-0.2-5.6,1.3-5.3,5.2c0.1,1.5,0,3,0,4.5c0,41.3,0,82.6,0,123.8c0,2.9,0.7,6-1.5,8.6c-2.2-1.2-1-3.3-1-4.9
			C290.1,963.1,290.1,916.5,290.1,869.8z"/>
		<path class="st3" d="M291.2,1014.6c0-46.5-0.1-93-0.1-139.5c0-2.6,0-4.4,3.6-4.4c46.8,0.1,93.6,0.2,140.4,0.2
			c0,45.6,0,91.2,0,136.8c0,2-0.1,4-0.1,6c-0.3,0.3-0.6,0.7-0.8,1c-45.6,0-91.3,0-136.9-0.1C295.2,1014.7,293.2,1014.7,291.2,1014.6
			z"/>
		<path class="st1" d="M580.3,580.8c0-0.3-0.1-0.7-0.3-0.9c46.6,0,93.2,0.1,139.9,0c4.2,0,5.2,1.1,5.2,5.2
			c-0.2,42.8-0.1,85.6-0.1,128.4c0,2.2,0.1,4.3,0.2,6.5c1.4,1.7,1.1,3.4-0.2,5l0.1-0.1c-0.4,0.5-0.7,0.4-0.8-0.2
			c-15.4-15.5-30.8-31.1-46.3-46.6c-31-31-62-62.1-92.9-93.1c-1.2-1.2-2.5-2.1-3.7-3.2C580.6,581.7,580.3,581.4,580.3,580.8z"/>
		<path class="st3" d="M582.5,436c4.6,0,8.7,0,12.9,0c39.5,0,78.9,0,118.4,0c10.2,0,10.2,0,10.2,10.3c0,42,0,84,0,125.9
			c0,1.6,0,3.2,0,5.3C676.7,530.3,629.9,483.4,582.5,436z"/>
		<path class="st3" d="M724.9,724.9c0.1-1.7,0.1-3.4,0.2-5c1.4-1.8,0.8-3.9,0.8-5.8c0-42.1,0-84.3,0-126.4c0-1.6,0-3.3,0-4.1
			c46.6,46.7,93.5,93.5,140.3,140.3c-0.7,0-2.4,0-4.1,0c-43.1,0-86.2,0-129.4,0c-1.9,0-4-0.7-5.8,0.8
			C726.3,724.8,725.6,724.9,724.9,724.9z"/>
		<path class="st3" d="M145.2,288.9c0-0.3,0-0.5,0.1-0.8c1.4-1.8,0.8-3.8,0.8-5.8c0-43.1,0-86.3,0-129.4c0-1.6,0-3.3,0-6.4
			c48.5,48.5,96.1,96.1,143.7,143.7c0.1,5.7,0.2,11.3,0.2,17c0,40.3,0,80.7,0,121c0,1.7,0.6,3.6-0.4,5c-2.1-1.8-4.3-3.5-6.3-5.5
			c-44.7-44.6-89.3-89.3-133.9-134C147.9,292.2,146.6,290.5,145.2,288.9z"/>
		<path class="st1" d="M580.1,144c-0.4,0.4-0.7,0.7-1.1,1.1c-2.3,1.3-4.8,1.3-7.3,1.3c-43.3,0-86.6,0-129.9,0
			c-7.5,0-8.2-0.7-8.2-8.4c0-43.6,0-87.3,0-130.9c0.1-1.7-0.7-3.7,1.3-5c1.1-2.1,1.6-0.5,2.3,0.3c15.8,15.8,31.7,31.4,47.5,47.2
			c30.8,30.8,61.6,61.7,92.4,92.6C578,143.2,578.8,144,580.1,144z"/>
		<path class="st1" d="M435.1,290.1c-44.8,0-89.6,0-134.4-0.1c-3.5,0-7-0.1-10.5-0.1c0-47.1-0.1-94.3-0.1-141.4
			c0-1.1-0.2-2.4,0.8-3.3c0.2,0,0.5,0,0.7,0c5.1,4.3,9.6,9.1,14.3,13.8c19.6,19.6,39.4,39.2,58.9,58.8c17,17.1,34.2,34,51,51.3
			c5.1,5.2,10.4,10.3,15.5,15.5c1.4,1.4,2.9,2.8,3.6,4.7C434.8,289.7,434.9,289.9,435.1,290.1z"/>
		<path class="st2" d="M434.9,2.2c-0.6,0.9-0.4,1.9,0,2.8c-0.7,1.8-0.3,3.6-0.3,5.4c0,43.1,0,86.2,0,129.3c0,6,0,6-6,6
			c-41.2,0-82.5,0-123.7-0.1c-4.6,0-9.3,1.8-13.8-0.4H291c8.5-8.7,17-17.4,25.5-26c37.9-37.9,75.8-75.8,113.7-113.7
			C431.6,4.2,432.5,2.1,434.9,2.2z"/>
		<path class="st0" d="M291,145.3c7.7-1.5,15.6-1.1,23.4-1.1c39,0,77.9-0.1,116.9,0.1c4.6,0,2.8-2.8,2.8-4.5
			c0.1-43,0.1-86,0.1-128.9c0-1.9-0.6-4,0.8-5.8c0.1,2.8,0.2,5.6,0.2,8.5c0,42.1,0.1,84.2-0.1,126.4c0,4.1,0.9,5.2,5.1,5.2
			c44.4-0.2,88.9-0.1,133.3-0.1c1.8,0,3.7,0.1,5.5,0.1c-0.3,0.3-0.6,0.7-0.9,1c-2.9,1.8-6.1,1.6-9.2,1.6c-41.8,0-83.6,0-125.4,0
			c-6.6,0-6.7,0-6.7,6.6c0,43-0.2,86,0.1,129c0,1.7,0.2,3.3-0.8,4.8c-0.4,0.4-0.7,0.9-1.1,1.3c-6.9-5.4-12.6-12-18.8-18.2
			c-26.3-26.1-52.7-52.1-78.7-78.5C322,176.9,305.8,161.8,291,145.3z"/>
		<path class="st3" d="M436,288.1c-0.7-2.6-0.9-5.2-0.9-7.9c0-42.3,0-84.6,0-126.8c0-7.3,0-7.3,7.1-7.3c45.3,0,90.5,0.1,135.8,0.1
			c-14.5,14.7-29,29.4-43.6,44c-31.5,31.6-63.1,63.2-94.7,94.7C438.6,286,437.3,287,436,288.1z"/>
		<path class="st4" d="M868.1,146c-47.7,47.7-94.6,94.6-141.5,141.4c-1.8-1-0.9-2.6-0.9-4c0.1-44.8,0.2-89.6,0.1-134.4
			c0-2.4,0.2-3.1,2.7-3.1C774.7,146,820.8,146,868.1,146z"/>
		<path class="st3" d="M580.2,288.1c0-46.8-0.1-93.5-0.1-140.3c0-0.3,0.2-0.6,0.3-0.9c1.3-0.3,1.8,0.8,2.4,1.4
			c45.7,45.6,91.3,91.3,136.9,137c0.8,0.8,1.5,1.8,2.3,2.6c-1.2,0.9-2.6,0.5-3.9,0.5c-44.8,0-89.7,0-134.5,0
			C582.5,288.5,581.3,288.7,580.2,288.1z"/>
		<path class="st6" d="M580.2,288.1c45.6,0,91.2-0.1,136.8-0.1c1.7,0,3.3,0,5-0.1c0.2,0,0.4,0,0.5,0.1c0.1,0.2,0.2,0.4,0.3,0.7
			c-1.1,0.1-2.3,0.2-3.4,0.2c-45,0-90,0-135,0C582.9,289,581.3,289.6,580.2,288.1z"/>
		<path class="st0" d="M580.1,435c-48,48.1-95.9,96.2-143.8,144.3c-0.4-0.2-0.8-0.4-1.2-0.6c0-47.9,0-95.8,0-143.7
			c25.2-25.1,50.4-50.2,75.5-75.3c21.6-21.6,43.2-43.3,64.8-64.9c1.2-1.2,2.6-2.4,4.7-4.2C580.1,339.4,580.1,387.2,580.1,435z"/>
		<path class="st3" d="M435,433.9c-2.6-0.7-3.6-3.2-5.3-4.9c-44.7-44.5-89.2-89.1-133.8-133.7c-1.1-1.1-2.6-2-3.1-4.1
			c47.5,0,94.8,0,142.2,0C434.9,338.7,435,386.3,435,433.9z"/>
		<path class="st2" d="M724.2,724.7c0.3,0,0.6,0,0.8,0.2c-0.1,0.3-0.1,0.7-0.2,1c-1.4,1.8-0.8,3.9-0.8,5.8c0,43.5,0,87,0,130.5
			c0,1.6,0,3.2,0,4.2c-46.7-46.7-93.6-93.6-140.5-140.5c1.1-0.7,3.3-0.9,5.6-0.9c39,0,78,0,116.9,0.1c4.3,0,8.6,1.1,12.9,0.9
			C720.8,725.7,722.6,725.8,724.2,724.7z"/>
		<path class="st3" d="M724,1012.8c-9.2-7.7-17.1-16.7-25.6-25.1c-11.8-11.6-23.1-23.8-35-35.3c-13.5-13.2-26.8-26.6-40.1-40.1
			c-12.4-12.7-25.2-25-37.9-37.4c-1.3-1.3-2.9-2.2-3.9-3c0.6-2.3,1.5-1.9,2.3-1.9c46.1,0,92.3,0,138.4,0c0.8,0,1.7,0.2,2.5,0.2
			c-1.6,5.1,0.2,10.2,0.2,15.3c0,39.5,0,79,0,118.5C724.9,1006.9,724.3,1009.8,724,1012.8z"/>
		<path class="st0" d="M290.2,580c0-47.8,0-95.6,0-143.2c47.5,47.8,95.1,95.5,142.6,143.2C385.8,580,337.9,580,290.2,580
			C290.1,580,290.2,580,290.2,580z"/>
		<path class="st3" d="M580.3,580.8c0.3,0.3,0.6,0.7,0.9,1c-2.1,1.7-1.2,4-1.2,6.1c-0.1,43.5-0.1,86.9,0.1,130.4
			c0,4.7-1.4,5.8-5.9,5.8c-45.6-0.2-91.2-0.2-137.6-0.2c2-2,3.7-3.7,5.3-5.3c44.5-44.5,89-89,133.5-133.5
			C576.9,583.5,578.6,582.2,580.3,580.8z"/>
	</g>
</g>
</svg>
