<?xml version="1.0" encoding="UTF-8" standalone="no"?>
<!DOCTYPE svg PUBLIC "-//W3C//DTD SVG 1.1//EN" "http://www.w3.org/Graphics/SVG/1.1/DTD/svg11.dtd">
<svg xmlns="http://www.w3.org/2000/svg" version="1.1" viewBox="0.00 0.00 567.00 346.00">
<g stroke-width="2.00" fill="none" stroke-linecap="butt">
<path stroke="#f2fdf9" vector-effect="non-scaling-stroke" d="
  M 342.06 59.29
  Q 341.72 60.86 340.13 60.59
  Q 336.99 60.05 334.21 59.57
  Q 330.61 58.96 328.44 59.50
  Q 319.64 61.66 320.47 71.85
  C 321.01 78.31 329.93 79.85 335.13 79.90
  Q 359.88 80.14 386.17 79.89
  C 388.93 79.86 395.53 79.75 397.62 77.62
  Q 401.15 74.02 400.72 69.03
  C 400.43 65.62 399.36 60.77 394.96 60.58
  Q 391.41 60.43 388.56 60.37
  C 387.73 60.35 387.27 60.87 386.65 61.31
  A 1.10 1.10 0.0 0 1 385.02 60.84
  C 383.05 56.26 382.04 51.93 378.02 48.38
  C 373.45 44.34 366.43 40.75 360.24 42.30
  C 356.50 43.24 352.87 43.66 349.90 46.42
  Q 345.56 50.47 342.28 55.38
  A 2.67 2.67 0.0 0 0 341.93 57.60
  Q 342.21 58.57 342.06 59.29"
/>
<path stroke="#9aebca" vector-effect="non-scaling-stroke" d="
  M 288.04 137.85
  C 288.29 136.03 288.62 134.23 288.53 132.38
  Q 288.13 123.97 281.38 118.98
  C 279.74 117.77 277.73 117.06 275.90 116.16
  Q 275.32 115.88 275.14 115.26
  L 261.17 67.78
  Q 260.23 64.58 257.02 65.51
  L 215.70 77.55
  A 3.59 3.57 -82.9 0 0 213.61 79.19
  L 199.87 103.08
  A 3.09 3.09 0.0 0 0 199.59 105.48
  L 219.14 171.70
  Q 220.09 174.90 223.28 173.95
  L 284.22 155.94
  A 2.88 2.87 -16.6 0 0 286.16 152.36
  L 284.22 145.89
  Q 284.04 145.26 284.39 144.70
  L 286.71 141.07
  A 0.74 0.66 31.0 0 1 287.67 140.89
  L 304.42 150.59
  A 1.03 1.03 0.0 0 0 305.89 150.10
  L 307.27 146.90
  Q 307.67 145.97 306.73 145.62
  L 288.65 138.88
  Q 287.94 138.61 288.04 137.85"
/>
<path stroke="#f2fdf9" vector-effect="non-scaling-stroke" d="
  M 36.56 96.33
  C 32.60 95.92 27.64 93.91 23.76 95.71
  C 19.52 97.67 12.33 103.31 12.14 108.93
  Q 12.00 113.30 13.43 115.59
  Q 15.97 119.67 21.25 119.75
  Q 32.57 119.91 43.93 119.49
  C 55.47 119.06 66.02 119.56 77.26 119.57
  Q 82.51 119.58 84.02 118.90
  Q 88.33 116.94 88.77 111.98
  C 89.13 107.96 87.59 100.26 83.29 98.09
  Q 77.95 95.40 73.13 93.92
  Q 71.76 93.50 71.39 92.12
  Q 69.45 84.82 62.08 80.36
  C 58.78 78.36 52.98 78.77 49.56 79.65
  C 44.70 80.90 41.28 85.12 38.40 89.12
  C 37.04 91.00 37.19 93.07 37.57 95.24
  A 0.93 0.93 0.0 0 1 36.56 96.33"
/>
<path stroke="#f2fdf9" vector-effect="non-scaling-stroke" d="
  M 453.22 138.99
  Q 452.99 141.30 450.86 141.36
  Q 450.26 141.38 449.82 140.96
  Q 448.38 139.59 446.41 139.34
  Q 439.38 138.46 434.23 142.32
  C 430.36 145.22 431.58 150.41 433.10 154.38
  C 434.28 157.47 437.44 159.17 440.63 159.18
  Q 469.34 159.23 499.58 159.23
  Q 503.64 159.23 507.68 157.94
  C 512.20 156.50 511.92 152.14 512.26 148.30
  C 512.55 145.05 511.05 142.26 508.26 140.78
  C 503.77 138.41 496.94 141.91 494.46 136.37
  Q 492.55 132.09 489.66 128.55
  C 487.22 125.56 483.42 124.27 479.94 122.98
  C 475.00 121.13 465.97 122.63 461.77 126.02
  C 457.37 129.57 453.85 132.92 453.22 138.99"
/>
<path stroke="#9aebca" vector-effect="non-scaling-stroke" d="
  M 437.99 267.52
  Q 441.54 266.58 444.90 266.28
  Q 447.34 266.06 446.89 263.88
  Q 443.98 249.74 441.24 235.79
  A 0.56 0.56 0.0 0 0 440.58 235.35
  L 425.78 238.52
  A 0.98 0.98 0.0 0 1 424.62 237.75
  L 408.24 156.01
  A 1.04 1.03 78.3 0 0 407.02 155.20
  L 367.09 163.15
  A 2.21 2.21 0.0 0 0 365.48 164.50
  Q 346.22 213.59 327.92 260.54
  Q 326.73 263.60 327.30 266.77
  A 0.80 0.79 85.1 0 1 326.52 267.70
  L 311.29 267.74
  A 0.57 0.56 -1.0 0 1 310.72 267.20
  C 309.81 236.53 300.34 195.40 263.68 190.53
  Q 251.57 188.92 239.55 191.92
  C 223.15 196.01 211.93 207.83 206.16 223.59
  Q 202.83 232.70 201.86 241.44
  Q 200.50 253.67 200.65 266.48
  A 1.10 1.09 89.5 0 1 199.57 267.59
  L 182.02 267.77
  Q 180.49 267.78 180.74 266.27
  L 182.93 253.41
  Q 183.17 252.01 181.77 251.78
  L 167.72 249.55
  A 0.93 0.93 0.0 0 1 166.95 248.47
  L 180.72 165.75
  Q 180.80 165.25 180.31 165.16
  Q 167.09 162.75 153.34 160.76
  C 148.84 160.11 144.48 158.99 140.01 158.24
  A 2.87 2.85 25.6 0 0 137.43 159.14
  Q 104.05 195.94 68.07 235.67
  Q 66.09 237.85 65.71 240.77
  Q 64.29 251.49 62.26 261.91
  Q 62.03 263.12 63.24 263.32
  Q 80.00 266.12 95.55 268.83
  Q 101.11 269.80 107.78 269.80
  Q 165.22 269.80 221.75 269.62
  C 291.12 269.39 360.25 269.94 429.49 269.72
  Q 430.17 269.72 432.31 268.87
  Q 432.79 268.68 433.30 268.79
  C 434.20 268.98 434.70 269.46 435.73 269.49
  Q 445.85 269.78 455.50 269.45
  Q 455.72 269.44 455.72 269.22
  L 455.72 268.81
  A 0.54 0.54 0.0 0 0 455.19 268.27
  L 438.04 267.90
  Q 436.64 267.87 437.99 267.52"
/>
<path stroke="#9aebca" vector-effect="non-scaling-stroke" d="
  M 70.6499 268.7420
  A 0.79 0.79 0.0 0 0 69.8571 267.9548
  L 49.6772 268.0252
  A 0.79 0.79 0.0 0 0 48.8900 268.8180
  L 48.8901 268.8580
  A 0.79 0.79 0.0 0 0 49.6829 269.6452
  L 69.8628 269.5748
  A 0.79 0.79 0.0 0 0 70.6500 268.7820
  L 70.6499 268.7420"
/>
<path stroke="#d4f6eb" vector-effect="non-scaling-stroke" d="
  M 337.0698 284.3504
  A 3.78 0.36 -0.6 0 0 333.2862 284.0300
  A 3.78 0.36 -0.6 0 0 329.5102 284.4296
  A 3.78 0.36 -0.6 0 0 333.2938 284.7500
  A 3.78 0.36 -0.6 0 0 337.0698 284.3504"
/>
<path stroke="#d4f6eb" vector-effect="non-scaling-stroke" d="
  M 411.9595 289.6387
  A 0.36 0.36 0.0 0 0 411.5964 289.2819
  L 391.3972 289.4582
  A 0.36 0.36 0.0 0 0 391.0403 289.8213
  L 391.0405 289.8413
  A 0.36 0.36 0.0 0 0 391.4036 290.1981
  L 411.6028 290.0218
  A 0.36 0.36 0.0 0 0 411.9597 289.6587
  L 411.9595 289.6387"
/>
<path stroke="#d4f6eb" vector-effect="non-scaling-stroke" d="
  M 110.4999 290.4754
  A 0.25 0.25 0.0 0 0 110.2491 290.2262
  L 90.9092 290.2938
  A 0.25 0.25 0.0 0 0 90.6601 290.5446
  L 90.6601 290.5446
  A 0.25 0.25 0.0 0 0 90.9109 290.7938
  L 110.2508 290.7262
  A 0.25 0.25 0.0 0 0 110.4999 290.4754
  L 110.4999 290.4754"
/>
<path stroke="#d4f6eb" vector-effect="non-scaling-stroke" d="
  M 188.23 292.47
  A 0.27 0.27 0.0 0 0 187.96 292.20
  L 168.58 292.20
  A 0.27 0.27 0.0 0 0 168.31 292.47
  L 168.31 292.51
  A 0.27 0.27 0.0 0 0 168.58 292.78
  L 187.96 292.78
  A 0.27 0.27 0.0 0 0 188.23 292.51
  L 188.23 292.47"
/>
<path stroke="#d4f6eb" vector-effect="non-scaling-stroke" d="
  M 376.8400 306.8465
  A 0.41 0.41 0.0 0 0 376.4314 306.4351
  L 356.3316 306.3649
  A 0.41 0.41 0.0 0 0 355.9201 306.7735
  L 355.9200 306.8135
  A 0.41 0.41 0.0 0 0 356.3286 307.2249
  L 376.4284 307.2951
  A 0.41 0.41 0.0 0 0 376.8399 306.8865
  L 376.8400 306.8465"
/>
<path stroke="#d4f6eb" vector-effect="non-scaling-stroke" d="
  M 218.9400 307.6862
  A 0.26 0.26 0.0 0 0 218.6809 307.4253
  L 198.4810 307.3547
  A 0.26 0.26 0.0 0 0 198.2201 307.6138
  L 198.2200 307.6338
  A 0.26 0.26 0.0 0 0 198.4791 307.8947
  L 218.6790 307.9653
  A 0.26 0.26 0.0 0 0 218.9399 307.7062
  L 218.9400 307.6862"
/>
<path stroke="#6fe2b6" vector-effect="non-scaling-stroke" d="
  M 257.56 144.40
  Q 254.15 140.04 253.82 134.45"
/>
<path stroke="#9aebca" vector-effect="non-scaling-stroke" d="
  M 253.82 134.45
  C 252.65 123.24 262.11 114.84 272.97 115.71
  A 0.39 0.39 0.0 0 0 273.38 115.21
  L 259.55 68.02
  A 1.61 1.61 0.0 0 0 257.56 66.93
  Q 236.90 72.85 217.01 78.82
  Q 216.43 78.99 216.12 79.42
  Q 215.78 79.91 216.28 80.38
  Q 216.67 80.73 216.81 81.24
  L 221.30 97.31
  Q 222.01 99.85 219.49 100.61
  L 202.07 105.84
  Q 201.58 105.99 201.72 106.48
  L 220.73 171.51
  A 1.18 1.18 0.0 0 0 222.19 172.31
  L 283.71 154.31
  A 1.21 1.20 -17.2 0 0 284.52 152.79
  L 282.72 147.20
  A 0.54 0.53 -27.5 0 0 281.89 146.94
  C 274.40 152.64 263.88 151.64 257.56 144.40"
/>
<path stroke="#d4f6eb" vector-effect="non-scaling-stroke" d="
  M 253.82 134.45
  Q 253.90 135.77 253.25 136.48
  Q 252.90 136.87 252.38 136.72
  L 251.55 136.46
  A 1.00 1.00 0.0 0 0 250.30 137.69
  L 254.24 151.36
  Q 254.61 152.63 255.88 152.30
  L 257.56 151.86
  Q 258.92 151.51 258.73 150.12
  Q 258.39 147.55 257.06 145.66
  Q 256.78 145.26 257.00 144.82
  Q 257.22 144.39 257.56 144.40"
/>
<path stroke="#9aebca" vector-effect="non-scaling-stroke" d="
  M 214.94 80.95
  A 0.33 0.33 0.0 0 0 214.33 80.88
  L 201.72 103.64
  A 0.33 0.33 0.0 0 0 202.10 104.12
  L 219.92 99.13
  A 0.33 0.33 0.0 0 0 220.15 98.71
  L 214.94 80.95"
/>
<path stroke="#6fe2b6" vector-effect="non-scaling-stroke" d="
  M 286.78 133.10
  A 15.71 15.71 0.0 0 0 271.07 117.39
  A 15.71 15.71 0.0 0 0 255.36 133.10
  A 15.71 15.71 0.0 0 0 271.07 148.81
  A 15.71 15.71 0.0 0 0 286.78 133.10"
/>
<path stroke="#9aebca" vector-effect="non-scaling-stroke" d="
  M 256.3213 102.1958
  A 0.39 0.39 0.0 0 0 255.8380 101.9301
  L 214.3533 113.9825
  A 0.39 0.39 0.0 0 0 214.0876 114.4658
  L 214.0987 114.5042
  A 0.39 0.39 0.0 0 0 214.5820 114.7699
  L 256.0667 102.7175
  A 0.39 0.39 0.0 0 0 256.3324 102.2342
  L 256.3213 102.1958"
/>
<path stroke="#9aebca" vector-effect="non-scaling-stroke" d="
  M 257.6693 108.9214
  A 0.35 0.35 0.0 0 0 257.2355 108.6830
  L 216.3078 120.5736
  A 0.35 0.35 0.0 0 0 216.0693 121.0073
  L 216.1307 121.2186
  A 0.35 0.35 0.0 0 0 216.5645 121.4570
  L 257.4922 109.5664
  A 0.35 0.35 0.0 0 0 257.7307 109.1327
  L 257.6693 108.9214"
/>
<path stroke="#9aebca" vector-effect="non-scaling-stroke" d="
  M 259.7133 115.4787
  A 0.40 0.40 0.0 0 0 259.2171 115.2070
  L 218.1566 127.2140
  A 0.40 0.40 0.0 0 0 217.8850 127.7101
  L 217.9467 127.9213
  A 0.40 0.40 0.0 0 0 218.4429 128.1930
  L 259.5034 116.1860
  A 0.40 0.40 0.0 0 0 259.7750 115.6899
  L 259.7133 115.4787"
/>
<path stroke="#d4f6eb" vector-effect="non-scaling-stroke" d="
  M 236.59 156.87
  A 1.03 1.03 0.0 0 0 237.72 157.59
  L 240.25 157.22
  A 1.03 1.03 0.0 0 0 241.09 155.91
  L 235.75 137.51
  A 1.03 1.03 0.0 0 0 234.49 136.80
  L 231.91 137.50
  A 1.03 1.03 0.0 0 0 231.19 138.79
  L 236.59 156.87"
/>
<path stroke="#d4f6eb" vector-effect="non-scaling-stroke" d="
  M 247.2601 143.4693
  A 0.89 0.89 0.0 0 0 246.1614 142.8552
  L 243.2748 143.6721
  A 0.89 0.89 0.0 0 0 242.6607 144.7708
  L 245.3999 154.4507
  A 0.89 0.89 0.0 0 0 246.4986 155.0648
  L 249.3852 154.2479
  A 0.89 0.89 0.0 0 0 249.9993 153.1492
  L 247.2601 143.4693"
/>
<path stroke="#d4f6eb" vector-effect="non-scaling-stroke" d="
  M 228.3143 144.7530
  A 1.43 1.43 0.0 0 0 226.5387 143.7849
  L 224.6201 144.3496
  A 1.43 1.43 0.0 0 0 223.6520 146.1252
  L 227.5257 159.2870
  A 1.43 1.43 0.0 0 0 229.3013 160.2551
  L 231.2199 159.6904
  A 1.43 1.43 0.0 0 0 232.1880 157.9148
  L 228.3143 144.7530"
/>
<path stroke="#d4f6eb" vector-effect="non-scaling-stroke" d="
  M 284.19 133.17
  A 13.13 13.13 0.0 0 0 271.06 120.04
  A 13.13 13.13 0.0 0 0 257.93 133.17
  A 13.13 13.13 0.0 0 0 271.06 146.30
  A 13.13 13.13 0.0 0 0 284.19 133.17"
/>
<path stroke="#9aebca" vector-effect="non-scaling-stroke" d="
  M 272.00 126.54
  A 0.89 0.89 0.0 0 0 271.11 125.65
  L 271.03 125.65
  A 0.89 0.89 0.0 0 0 270.14 126.54
  L 270.14 135.06
  A 0.89 0.89 0.0 0 0 271.03 135.95
  L 271.11 135.95
  A 0.89 0.89 0.0 0 0 272.00 135.06
  L 272.00 126.54"
/>
<path stroke="#9aebca" vector-effect="non-scaling-stroke" d="
  M 270.8563 140.7102
  A 1.21 0.99 97.3 0 0 271.9920 139.6358
  A 1.21 0.99 97.3 0 0 271.1637 138.3098
  A 1.21 0.99 97.3 0 0 270.0280 139.3842
  A 1.21 0.99 97.3 0 0 270.8563 140.7102"
/>
<path stroke="#6fe2b6" vector-effect="non-scaling-stroke" d="
  M 395.2475 190.4123
  A 1.94 0.37 95.1 0 0 395.7885 188.5129
  A 1.94 0.37 95.1 0 0 395.5925 186.5477
  A 1.94 0.37 95.1 0 0 395.0515 188.4471
  A 1.94 0.37 95.1 0 0 395.2475 190.4123"
/>
<path stroke="#9aebca" vector-effect="non-scaling-stroke" d="
  M 248.07 211.93
  C 260.12 209.29 270.49 213.82 276.00 225.17
  Q 279.12 231.62 280.53 238.27
  Q 283.42 251.89 284.07 266.93
  A 0.87 0.87 0.0 0 0 284.94 267.76
  L 307.81 267.74
  A 0.67 0.67 0.0 0 0 308.48 267.06
  C 308.13 237.44 298.31 196.31 261.81 192.63
  C 248.55 191.30 235.29 193.50 224.70 201.24
  C 210.73 211.44 205.57 228.84 203.36 245.15
  C 202.40 252.26 202.73 259.77 202.88 266.86
  A 0.84 0.84 0.0 0 0 203.72 267.68
  L 226.83 267.66
  A 0.53 0.52 -2.0 0 0 227.36 267.10
  Q 226.70 255.11 227.75 243.07
  Q 228.87 230.24 234.11 221.60
  Q 238.76 213.96 248.07 211.93"
/>
<path stroke="#9aebca" vector-effect="non-scaling-stroke" d="
  M 105.32 239.16
  Q 118.32 241.17 131.06 243.35
  A 0.47 0.46 9.2 0 0 131.60 242.97
  L 138.89 199.04
  Q 139.04 198.17 138.46 198.84
  L 104.47 238.29
  A 0.54 0.54 0.0 0 0 104.41 238.91
  Q 104.61 239.27 104.93 239.18
  Q 105.13 239.13 105.32 239.16"
/>
<path stroke="#9aebca" vector-effect="non-scaling-stroke" d="
  M 362.69 250.66
  A 0.33 0.33 0.0 0 0 363.06 251.09
  L 389.32 245.78
  A 0.33 0.33 0.0 0 0 389.58 245.40
  L 381.01 200.97
  A 0.33 0.33 0.0 0 0 380.37 200.92
  L 362.69 250.66"
/>
<path stroke="#8de9c4" vector-effect="non-scaling-stroke" d="
  M 275.07 228.11
  Q 268.43 211.86 251.11 213.54
  Q 240.97 214.52 235.45 223.36
  Q 232.82 227.57 231.29 234.28
  C 228.88 244.90 228.99 256.31 229.42 267.24
  A 0.50 0.50 0.0 0 0 229.92 267.72
  L 281.27 267.75
  Q 282.10 267.75 282.06 266.93
  C 281.40 253.59 279.98 240.13 275.07 228.11"
/>
</g>
<path fill="#ffffff" d="
  M 0.00 0.00
  L 567.00 0.00
  L 567.00 346.00
  L 0.00 346.00
  L 0.00 0.00
  Z
  M 342.06 59.29
  Q 341.72 60.86 340.13 60.59
  Q 336.99 60.05 334.21 59.57
  Q 330.61 58.96 328.44 59.50
  Q 319.64 61.66 320.47 71.85
  C 321.01 78.31 329.93 79.85 335.13 79.90
  Q 359.88 80.14 386.17 79.89
  C 388.93 79.86 395.53 79.75 397.62 77.62
  Q 401.15 74.02 400.72 69.03
  C 400.43 65.62 399.36 60.77 394.96 60.58
  Q 391.41 60.43 388.56 60.37
  C 387.73 60.35 387.27 60.87 386.65 61.31
  A 1.10 1.10 0.0 0 1 385.02 60.84
  C 383.05 56.26 382.04 51.93 378.02 48.38
  C 373.45 44.34 366.43 40.75 360.24 42.30
  C 356.50 43.24 352.87 43.66 349.90 46.42
  Q 345.56 50.47 342.28 55.38
  A 2.67 2.67 0.0 0 0 341.93 57.60
  Q 342.21 58.57 342.06 59.29
  Z
  M 288.04 137.85
  C 288.29 136.03 288.62 134.23 288.53 132.38
  Q 288.13 123.97 281.38 118.98
  C 279.74 117.77 277.73 117.06 275.90 116.16
  Q 275.32 115.88 275.14 115.26
  L 261.17 67.78
  Q 260.23 64.58 257.02 65.51
  L 215.70 77.55
  A 3.59 3.57 -82.9 0 0 213.61 79.19
  L 199.87 103.08
  A 3.09 3.09 0.0 0 0 199.59 105.48
  L 219.14 171.70
  Q 220.09 174.90 223.28 173.95
  L 284.22 155.94
  A 2.88 2.87 -16.6 0 0 286.16 152.36
  L 284.22 145.89
  Q 284.04 145.26 284.39 144.70
  L 286.71 141.07
  A 0.74 0.66 31.0 0 1 287.67 140.89
  L 304.42 150.59
  A 1.03 1.03 0.0 0 0 305.89 150.10
  L 307.27 146.90
  Q 307.67 145.97 306.73 145.62
  L 288.65 138.88
  Q 287.94 138.61 288.04 137.85
  Z
  M 36.56 96.33
  C 32.60 95.92 27.64 93.91 23.76 95.71
  C 19.52 97.67 12.33 103.31 12.14 108.93
  Q 12.00 113.30 13.43 115.59
  Q 15.97 119.67 21.25 119.75
  Q 32.57 119.91 43.93 119.49
  C 55.47 119.06 66.02 119.56 77.26 119.57
  Q 82.51 119.58 84.02 118.90
  Q 88.33 116.94 88.77 111.98
  C 89.13 107.96 87.59 100.26 83.29 98.09
  Q 77.95 95.40 73.13 93.92
  Q 71.76 93.50 71.39 92.12
  Q 69.45 84.82 62.08 80.36
  C 58.78 78.36 52.98 78.77 49.56 79.65
  C 44.70 80.90 41.28 85.12 38.40 89.12
  C 37.04 91.00 37.19 93.07 37.57 95.24
  A 0.93 0.93 0.0 0 1 36.56 96.33
  Z
  M 453.22 138.99
  Q 452.99 141.30 450.86 141.36
  Q 450.26 141.38 449.82 140.96
  Q 448.38 139.59 446.41 139.34
  Q 439.38 138.46 434.23 142.32
  C 430.36 145.22 431.58 150.41 433.10 154.38
  C 434.28 157.47 437.44 159.17 440.63 159.18
  Q 469.34 159.23 499.58 159.23
  Q 503.64 159.23 507.68 157.94
  C 512.20 156.50 511.92 152.14 512.26 148.30
  C 512.55 145.05 511.05 142.26 508.26 140.78
  C 503.77 138.41 496.94 141.91 494.46 136.37
  Q 492.55 132.09 489.66 128.55
  C 487.22 125.56 483.42 124.27 479.94 122.98
  C 475.00 121.13 465.97 122.63 461.77 126.02
  C 457.37 129.57 453.85 132.92 453.22 138.99
  Z
  M 437.99 267.52
  Q 441.54 266.58 444.90 266.28
  Q 447.34 266.06 446.89 263.88
  Q 443.98 249.74 441.24 235.79
  A 0.56 0.56 0.0 0 0 440.58 235.35
  L 425.78 238.52
  A 0.98 0.98 0.0 0 1 424.62 237.75
  L 408.24 156.01
  A 1.04 1.03 78.3 0 0 407.02 155.20
  L 367.09 163.15
  A 2.21 2.21 0.0 0 0 365.48 164.50
  Q 346.22 213.59 327.92 260.54
  Q 326.73 263.60 327.30 266.77
  A 0.80 0.79 85.1 0 1 326.52 267.70
  L 311.29 267.74
  A 0.57 0.56 -1.0 0 1 310.72 267.20
  C 309.81 236.53 300.34 195.40 263.68 190.53
  Q 251.57 188.92 239.55 191.92
  C 223.15 196.01 211.93 207.83 206.16 223.59
  Q 202.83 232.70 201.86 241.44
  Q 200.50 253.67 200.65 266.48
  A 1.10 1.09 89.5 0 1 199.57 267.59
  L 182.02 267.77
  Q 180.49 267.78 180.74 266.27
  L 182.93 253.41
  Q 183.17 252.01 181.77 251.78
  L 167.72 249.55
  A 0.93 0.93 0.0 0 1 166.95 248.47
  L 180.72 165.75
  Q 180.80 165.25 180.31 165.16
  Q 167.09 162.75 153.34 160.76
  C 148.84 160.11 144.48 158.99 140.01 158.24
  A 2.87 2.85 25.6 0 0 137.43 159.14
  Q 104.05 195.94 68.07 235.67
  Q 66.09 237.85 65.71 240.77
  Q 64.29 251.49 62.26 261.91
  Q 62.03 263.12 63.24 263.32
  Q 80.00 266.12 95.55 268.83
  Q 101.11 269.80 107.78 269.80
  Q 165.22 269.80 221.75 269.62
  C 291.12 269.39 360.25 269.94 429.49 269.72
  Q 430.17 269.72 432.31 268.87
  Q 432.79 268.68 433.30 268.79
  C 434.20 268.98 434.70 269.46 435.73 269.49
  Q 445.85 269.78 455.50 269.45
  Q 455.72 269.44 455.72 269.22
  L 455.72 268.81
  A 0.54 0.54 0.0 0 0 455.19 268.27
  L 438.04 267.90
  Q 436.64 267.87 437.99 267.52
  Z
  M 70.6499 268.7420
  A 0.79 0.79 0.0 0 0 69.8571 267.9548
  L 49.6772 268.0252
  A 0.79 0.79 0.0 0 0 48.8900 268.8180
  L 48.8901 268.8580
  A 0.79 0.79 0.0 0 0 49.6829 269.6452
  L 69.8628 269.5748
  A 0.79 0.79 0.0 0 0 70.6500 268.7820
  L 70.6499 268.7420
  Z
  M 337.0698 284.3504
  A 3.78 0.36 -0.6 0 0 333.2862 284.0300
  A 3.78 0.36 -0.6 0 0 329.5102 284.4296
  A 3.78 0.36 -0.6 0 0 333.2938 284.7500
  A 3.78 0.36 -0.6 0 0 337.0698 284.3504
  Z
  M 411.9595 289.6387
  A 0.36 0.36 0.0 0 0 411.5964 289.2819
  L 391.3972 289.4582
  A 0.36 0.36 0.0 0 0 391.0403 289.8213
  L 391.0405 289.8413
  A 0.36 0.36 0.0 0 0 391.4036 290.1981
  L 411.6028 290.0218
  A 0.36 0.36 0.0 0 0 411.9597 289.6587
  L 411.9595 289.6387
  Z
  M 110.4999 290.4754
  A 0.25 0.25 0.0 0 1 110.2508 290.7262
  L 90.9109 290.7938
  A 0.25 0.25 0.0 0 1 90.6601 290.5446
  L 90.6601 290.5446
  A 0.25 0.25 0.0 0 1 90.9092 290.2938
  L 110.2491 290.2262
  A 0.25 0.25 0.0 0 1 110.4999 290.4754
  L 110.4999 290.4754
  Z
  M 188.23 292.47
  A 0.27 0.27 0.0 0 0 187.96 292.20
  L 168.58 292.20
  A 0.27 0.27 0.0 0 0 168.31 292.47
  L 168.31 292.51
  A 0.27 0.27 0.0 0 0 168.58 292.78
  L 187.96 292.78
  A 0.27 0.27 0.0 0 0 188.23 292.51
  L 188.23 292.47
  Z
  M 376.8400 306.8465
  A 0.41 0.41 0.0 0 0 376.4314 306.4351
  L 356.3316 306.3649
  A 0.41 0.41 0.0 0 0 355.9201 306.7735
  L 355.9200 306.8135
  A 0.41 0.41 0.0 0 0 356.3286 307.2249
  L 376.4284 307.2951
  A 0.41 0.41 0.0 0 0 376.8399 306.8865
  L 376.8400 306.8465
  Z
  M 218.9400 307.6862
  A 0.26 0.26 0.0 0 0 218.6809 307.4253
  L 198.4810 307.3547
  A 0.26 0.26 0.0 0 0 198.2201 307.6138
  L 198.2200 307.6338
  A 0.26 0.26 0.0 0 0 198.4791 307.8947
  L 218.6790 307.9653
  A 0.26 0.26 0.0 0 0 218.9399 307.7062
  L 218.9400 307.6862
  Z"
/>
<path fill="#e5faf3" d="
  M 342.06 59.29
  Q 342.21 58.57 341.93 57.60
  A 2.67 2.67 0.0 0 1 342.28 55.38
  Q 345.56 50.47 349.90 46.42
  C 352.87 43.66 356.50 43.24 360.24 42.30
  C 366.43 40.75 373.45 44.34 378.02 48.38
  C 382.04 51.93 383.05 56.26 385.02 60.84
  A 1.10 1.10 0.0 0 0 386.65 61.31
  C 387.27 60.87 387.73 60.35 388.56 60.37
  Q 391.41 60.43 394.96 60.58
  C 399.36 60.77 400.43 65.62 400.72 69.03
  Q 401.15 74.02 397.62 77.62
  C 395.53 79.75 388.93 79.86 386.17 79.89
  Q 359.88 80.14 335.13 79.90
  C 329.93 79.85 321.01 78.31 320.47 71.85
  Q 319.64 61.66 328.44 59.50
  Q 330.61 58.96 334.21 59.57
  Q 336.99 60.05 340.13 60.59
  Q 341.72 60.86 342.06 59.29
  Z"
/>
<path fill="#34d795" d="
  M 288.65 138.88
  L 306.73 145.62
  Q 307.67 145.97 307.27 146.90
  L 305.89 150.10
  A 1.03 1.03 0.0 0 1 304.42 150.59
  L 287.67 140.89
  A 0.74 0.66 31.0 0 0 286.71 141.07
  L 284.39 144.70
  Q 284.04 145.26 284.22 145.89
  L 286.16 152.36
  A 2.88 2.87 -16.6 0 1 284.22 155.94
  L 223.28 173.95
  Q 220.09 174.90 219.14 171.70
  L 199.59 105.48
  A 3.09 3.09 0.0 0 1 199.87 103.08
  L 213.61 79.19
  A 3.59 3.57 -82.9 0 1 215.70 77.55
  L 257.02 65.51
  Q 260.23 64.58 261.17 67.78
  L 275.14 115.26
  Q 275.32 115.88 275.90 116.16
  C 277.73 117.06 279.74 117.77 281.38 118.98
  Q 288.13 123.97 288.53 132.38
  C 288.62 134.23 288.29 136.03 288.04 137.85
  Q 287.94 138.61 288.65 138.88
  Z
  M 257.56 144.40
  Q 254.15 140.04 253.82 134.45
  C 252.65 123.24 262.11 114.84 272.97 115.71
  A 0.39 0.39 0.0 0 0 273.38 115.21
  L 259.55 68.02
  A 1.61 1.61 0.0 0 0 257.56 66.93
  Q 236.90 72.85 217.01 78.82
  Q 216.43 78.99 216.12 79.42
  Q 215.78 79.91 216.28 80.38
  Q 216.67 80.73 216.81 81.24
  L 221.30 97.31
  Q 222.01 99.85 219.49 100.61
  L 202.07 105.84
  Q 201.58 105.99 201.72 106.48
  L 220.73 171.51
  A 1.18 1.18 0.0 0 0 222.19 172.31
  L 283.71 154.31
  A 1.21 1.20 -17.2 0 0 284.52 152.79
  L 282.72 147.20
  A 0.54 0.53 -27.5 0 0 281.89 146.94
  C 274.40 152.64 263.88 151.64 257.56 144.40
  Z
  M 214.94 80.95
  A 0.33 0.33 0.0 0 0 214.33 80.88
  L 201.72 103.64
  A 0.33 0.33 0.0 0 0 202.10 104.12
  L 219.92 99.13
  A 0.33 0.33 0.0 0 0 220.15 98.71
  L 214.94 80.95
  Z
  M 286.78 133.10
  A 15.71 15.71 0.0 0 0 271.07 117.39
  A 15.71 15.71 0.0 0 0 255.36 133.10
  A 15.71 15.71 0.0 0 0 271.07 148.81
  A 15.71 15.71 0.0 0 0 286.78 133.10
  Z"
/>
<path fill="#ffffff" d="
  M 253.82 134.45
  Q 253.90 135.77 253.25 136.48
  Q 252.90 136.87 252.38 136.72
  L 251.55 136.46
  A 1.00 1.00 0.0 0 0 250.30 137.69
  L 254.24 151.36
  Q 254.61 152.63 255.88 152.30
  L 257.56 151.86
  Q 258.92 151.51 258.73 150.12
  Q 258.39 147.55 257.06 145.66
  Q 256.78 145.26 257.00 144.82
  Q 257.22 144.39 257.56 144.40
  C 263.88 151.64 274.40 152.64 281.89 146.94
  A 0.54 0.53 -27.5 0 1 282.72 147.20
  L 284.52 152.79
  A 1.21 1.20 -17.2 0 1 283.71 154.31
  L 222.19 172.31
  A 1.18 1.18 0.0 0 1 220.73 171.51
  L 201.72 106.48
  Q 201.58 105.99 202.07 105.84
  L 219.49 100.61
  Q 222.01 99.85 221.30 97.31
  L 216.81 81.24
  Q 216.67 80.73 216.28 80.38
  Q 215.78 79.91 216.12 79.42
  Q 216.43 78.99 217.01 78.82
  Q 236.90 72.85 257.56 66.93
  A 1.61 1.61 0.0 0 1 259.55 68.02
  L 273.38 115.21
  A 0.39 0.39 0.0 0 1 272.97 115.71
  C 262.11 114.84 252.65 123.24 253.82 134.45
  Z
  M 256.3213 102.1958
  A 0.39 0.39 0.0 0 0 255.8380 101.9301
  L 214.3533 113.9825
  A 0.39 0.39 0.0 0 0 214.0876 114.4658
  L 214.0987 114.5042
  A 0.39 0.39 0.0 0 0 214.5820 114.7699
  L 256.0667 102.7175
  A 0.39 0.39 0.0 0 0 256.3324 102.2342
  L 256.3213 102.1958
  Z
  M 257.6693 108.9214
  A 0.35 0.35 0.0 0 0 257.2355 108.6830
  L 216.3078 120.5736
  A 0.35 0.35 0.0 0 0 216.0693 121.0073
  L 216.1307 121.2186
  A 0.35 0.35 0.0 0 0 216.5645 121.4570
  L 257.4922 109.5664
  A 0.35 0.35 0.0 0 0 257.7307 109.1327
  L 257.6693 108.9214
  Z
  M 259.7133 115.4787
  A 0.40 0.40 0.0 0 0 259.2171 115.2070
  L 218.1566 127.2140
  A 0.40 0.40 0.0 0 0 217.8850 127.7101
  L 217.9467 127.9213
  A 0.40 0.40 0.0 0 0 218.4429 128.1930
  L 259.5034 116.1860
  A 0.40 0.40 0.0 0 0 259.7750 115.6899
  L 259.7133 115.4787
  Z
  M 236.59 156.87
  A 1.03 1.03 0.0 0 0 237.72 157.59
  L 240.25 157.22
  A 1.03 1.03 0.0 0 0 241.09 155.91
  L 235.75 137.51
  A 1.03 1.03 0.0 0 0 234.49 136.80
  L 231.91 137.50
  A 1.03 1.03 0.0 0 0 231.19 138.79
  L 236.59 156.87
  Z
  M 247.2601 143.4693
  A 0.89 0.89 0.0 0 0 246.1614 142.8552
  L 243.2748 143.6721
  A 0.89 0.89 0.0 0 0 242.6607 144.7708
  L 245.3999 154.4507
  A 0.89 0.89 0.0 0 0 246.4986 155.0648
  L 249.3852 154.2479
  A 0.89 0.89 0.0 0 0 249.9993 153.1492
  L 247.2601 143.4693
  Z
  M 228.3143 144.7530
  A 1.43 1.43 0.0 0 0 226.5387 143.7849
  L 224.6201 144.3496
  A 1.43 1.43 0.0 0 0 223.6520 146.1252
  L 227.5257 159.2870
  A 1.43 1.43 0.0 0 0 229.3013 160.2551
  L 231.2199 159.6904
  A 1.43 1.43 0.0 0 0 232.1880 157.9148
  L 228.3143 144.7530
  Z"
/>
<path fill="#e5faf3" d="
  M 36.56 96.33
  A 0.93 0.93 0.0 0 0 37.57 95.24
  C 37.19 93.07 37.04 91.00 38.40 89.12
  C 41.28 85.12 44.70 80.90 49.56 79.65
  C 52.98 78.77 58.78 78.36 62.08 80.36
  Q 69.45 84.82 71.39 92.12
  Q 71.76 93.50 73.13 93.92
  Q 77.95 95.40 83.29 98.09
  C 87.59 100.26 89.13 107.96 88.77 111.98
  Q 88.33 116.94 84.02 118.90
  Q 82.51 119.58 77.26 119.57
  C 66.02 119.56 55.47 119.06 43.93 119.49
  Q 32.57 119.91 21.25 119.75
  Q 15.97 119.67 13.43 115.59
  Q 12.00 113.30 12.14 108.93
  C 12.33 103.31 19.52 97.67 23.76 95.71
  C 27.64 93.91 32.60 95.92 36.56 96.33
  Z"
/>
<path fill="#ffffff" d="
  M 214.94 80.95
  L 220.15 98.71
  A 0.33 0.33 0.0 0 1 219.92 99.13
  L 202.10 104.12
  A 0.33 0.33 0.0 0 1 201.72 103.64
  L 214.33 80.88
  A 0.33 0.33 0.0 0 1 214.94 80.95
  Z"
/>
<rect fill="#34d795" x="-21.99" y="-0.41" transform="translate(235.21,108.35) rotate(-16.2)" width="43.98" height="0.82" rx="0.39"/>
<rect fill="#34d795" x="-21.66" y="-0.46" transform="translate(236.90,115.07) rotate(-16.2)" width="43.32" height="0.92" rx="0.35"/>
<rect fill="#34d795" x="-21.79" y="-0.51" transform="translate(238.83,121.70) rotate(-16.3)" width="43.58" height="1.02" rx="0.40"/>
<path fill="#a9ecd7" d="
  M 286.78 133.10
  A 15.71 15.71 0.0 0 1 271.07 148.81
  A 15.71 15.71 0.0 0 1 255.36 133.10
  A 15.71 15.71 0.0 0 1 271.07 117.39
  A 15.71 15.71 0.0 0 1 286.78 133.10
  Z
  M 284.19 133.17
  A 13.13 13.13 0.0 0 0 271.06 120.04
  A 13.13 13.13 0.0 0 0 257.93 133.17
  A 13.13 13.13 0.0 0 0 271.06 146.30
  A 13.13 13.13 0.0 0 0 284.19 133.17
  Z"
/>
<path fill="#ffffff" d="
  M 284.19 133.17
  A 13.13 13.13 0.0 0 1 271.06 146.30
  A 13.13 13.13 0.0 0 1 257.93 133.17
  A 13.13 13.13 0.0 0 1 271.06 120.04
  A 13.13 13.13 0.0 0 1 284.19 133.17
  Z
  M 272.00 126.54
  A 0.89 0.89 0.0 0 0 271.11 125.65
  L 271.03 125.65
  A 0.89 0.89 0.0 0 0 270.14 126.54
  L 270.14 135.06
  A 0.89 0.89 0.0 0 0 271.03 135.95
  L 271.11 135.95
  A 0.89 0.89 0.0 0 0 272.00 135.06
  L 272.00 126.54
  Z
  M 270.8563 140.7102
  A 1.21 0.99 97.3 0 0 271.9920 139.6358
  A 1.21 0.99 97.3 0 0 271.1637 138.3098
  A 1.21 0.99 97.3 0 0 270.0280 139.3842
  A 1.21 0.99 97.3 0 0 270.8563 140.7102
  Z"
/>
<path fill="#e5faf3" d="
  M 453.22 138.99
  C 453.85 132.92 457.37 129.57 461.77 126.02
  C 465.97 122.63 475.00 121.13 479.94 122.98
  C 483.42 124.27 487.22 125.56 489.66 128.55
  Q 492.55 132.09 494.46 136.37
  C 496.94 141.91 503.77 138.41 508.26 140.78
  C 511.05 142.26 512.55 145.05 512.26 148.30
  C 511.92 152.14 512.20 156.50 507.68 157.94
  Q 503.64 159.23 499.58 159.23
  Q 469.34 159.23 440.63 159.18
  C 437.44 159.17 434.28 157.47 433.10 154.38
  C 431.58 150.41 430.36 145.22 434.23 142.32
  Q 439.38 138.46 446.41 139.34
  Q 448.38 139.59 449.82 140.96
  Q 450.26 141.38 450.86 141.36
  Q 452.99 141.30 453.22 138.99
  Z"
/>
<rect fill="#34d795" x="270.14" y="125.65" width="1.86" height="10.30" rx="0.89"/>
<path fill="#a9ecd7" d="
  M 253.82 134.45
  Q 254.15 140.04 257.56 144.40
  Q 257.22 144.39 257.00 144.82
  Q 256.78 145.26 257.06 145.66
  Q 258.39 147.55 258.73 150.12
  Q 258.92 151.51 257.56 151.86
  L 255.88 152.30
  Q 254.61 152.63 254.24 151.36
  L 250.30 137.69
  A 1.00 1.00 0.0 0 1 251.55 136.46
  L 252.38 136.72
  Q 252.90 136.87 253.25 136.48
  Q 253.90 135.77 253.82 134.45
  Z"
/>
<path fill="#a9ecd7" d="
  M 236.59 156.87
  L 231.19 138.79
  A 1.03 1.03 0.0 0 1 231.91 137.50
  L 234.49 136.80
  A 1.03 1.03 0.0 0 1 235.75 137.51
  L 241.09 155.91
  A 1.03 1.03 0.0 0 1 240.25 157.22
  L 237.72 157.59
  A 1.03 1.03 0.0 0 1 236.59 156.87
  Z"
/>
<ellipse fill="#34d795" cx="0.00" cy="0.00" transform="translate(271.01,139.51) rotate(97.3)" rx="1.21" ry="0.99"/>
<rect fill="#a9ecd7" x="-2.39" y="-5.92" transform="translate(246.33,148.96) rotate(-15.8)" width="4.78" height="11.84" rx="0.89"/>
<rect fill="#a9ecd7" x="-2.43" y="-8.29" transform="translate(227.92,152.02) rotate(-16.4)" width="4.86" height="16.58" rx="1.43"/>
<path fill="#34d795" d="
  M 438.04 267.90
  L 455.19 268.27
  A 0.54 0.54 0.0 0 1 455.72 268.81
  L 455.72 269.22
  Q 455.72 269.44 455.50 269.45
  Q 445.85 269.78 435.73 269.49
  C 434.70 269.46 434.20 268.98 433.30 268.79
  Q 432.79 268.68 432.31 268.87
  Q 430.17 269.72 429.49 269.72
  C 360.25 269.94 291.12 269.39 221.75 269.62
  Q 165.22 269.80 107.78 269.80
  Q 101.11 269.80 95.55 268.83
  Q 80.00 266.12 63.24 263.32
  Q 62.03 263.12 62.26 261.91
  Q 64.29 251.49 65.71 240.77
  Q 66.09 237.85 68.07 235.67
  Q 104.05 195.94 137.43 159.14
  A 2.87 2.85 25.6 0 1 140.01 158.24
  C 144.48 158.99 148.84 160.11 153.34 160.76
  Q 167.09 162.75 180.31 165.16
  Q 180.80 165.25 180.72 165.75
  L 166.95 248.47
  A 0.93 0.93 0.0 0 0 167.72 249.55
  L 181.77 251.78
  Q 183.17 252.01 182.93 253.41
  L 180.74 266.27
  Q 180.49 267.78 182.02 267.77
  L 199.57 267.59
  A 1.10 1.09 89.5 0 0 200.65 266.48
  Q 200.50 253.67 201.86 241.44
  Q 202.83 232.70 206.16 223.59
  C 211.93 207.83 223.15 196.01 239.55 191.92
  Q 251.57 188.92 263.68 190.53
  C 300.34 195.40 309.81 236.53 310.72 267.20
  A 0.57 0.56 -1.0 0 0 311.29 267.74
  L 326.52 267.70
  A 0.80 0.79 85.1 0 0 327.30 266.77
  Q 326.73 263.60 327.92 260.54
  Q 346.22 213.59 365.48 164.50
  A 2.21 2.21 0.0 0 1 367.09 163.15
  L 407.02 155.20
  A 1.04 1.03 78.3 0 1 408.24 156.01
  L 424.62 237.75
  A 0.98 0.98 0.0 0 0 425.78 238.52
  L 440.58 235.35
  A 0.56 0.56 0.0 0 1 441.24 235.79
  Q 443.98 249.74 446.89 263.88
  Q 447.34 266.06 444.90 266.28
  Q 441.54 266.58 437.99 267.52
  Q 436.64 267.87 438.04 267.90
  Z
  M 395.2475 190.4123
  A 1.94 0.37 95.1 0 0 395.7885 188.5129
  A 1.94 0.37 95.1 0 0 395.5925 186.5477
  A 1.94 0.37 95.1 0 0 395.0515 188.4471
  A 1.94 0.37 95.1 0 0 395.2475 190.4123
  Z
  M 248.07 211.93
  C 260.12 209.29 270.49 213.82 276.00 225.17
  Q 279.12 231.62 280.53 238.27
  Q 283.42 251.89 284.07 266.93
  A 0.87 0.87 0.0 0 0 284.94 267.76
  L 307.81 267.74
  A 0.67 0.67 0.0 0 0 308.48 267.06
  C 308.13 237.44 298.31 196.31 261.81 192.63
  C 248.55 191.30 235.29 193.50 224.70 201.24
  C 210.73 211.44 205.57 228.84 203.36 245.15
  C 202.40 252.26 202.73 259.77 202.88 266.86
  A 0.84 0.84 0.0 0 0 203.72 267.68
  L 226.83 267.66
  A 0.53 0.52 -2.0 0 0 227.36 267.10
  Q 226.70 255.11 227.75 243.07
  Q 228.87 230.24 234.11 221.60
  Q 238.76 213.96 248.07 211.93
  Z
  M 105.32 239.16
  Q 118.32 241.17 131.06 243.35
  A 0.47 0.46 9.2 0 0 131.60 242.97
  L 138.89 199.04
  Q 139.04 198.17 138.46 198.84
  L 104.47 238.29
  A 0.54 0.54 0.0 0 0 104.41 238.91
  Q 104.61 239.27 104.93 239.18
  Q 105.13 239.13 105.32 239.16
  Z
  M 362.69 250.66
  A 0.33 0.33 0.0 0 0 363.06 251.09
  L 389.32 245.78
  A 0.33 0.33 0.0 0 0 389.58 245.40
  L 381.01 200.97
  A 0.33 0.33 0.0 0 0 380.37 200.92
  L 362.69 250.66
  Z
  M 275.07 228.11
  Q 268.43 211.86 251.11 213.54
  Q 240.97 214.52 235.45 223.36
  Q 232.82 227.57 231.29 234.28
  C 228.88 244.90 228.99 256.31 229.42 267.24
  A 0.50 0.50 0.0 0 0 229.92 267.72
  L 281.27 267.75
  Q 282.10 267.75 282.06 266.93
  C 281.40 253.59 279.98 240.13 275.07 228.11
  Z"
/>
<ellipse fill="#a9ecd7" cx="0.00" cy="0.00" transform="translate(395.42,188.48) rotate(95.1)" rx="1.94" ry="0.37"/>
<path fill="#ffffff" d="
  M 276.00 225.17
  C 270.49 213.82 260.12 209.29 248.07 211.93
  Q 238.76 213.96 234.11 221.60
  Q 228.87 230.24 227.75 243.07
  Q 226.70 255.11 227.36 267.10
  A 0.53 0.52 -2.0 0 1 226.83 267.66
  L 203.72 267.68
  A 0.84 0.84 0.0 0 1 202.88 266.86
  C 202.73 259.77 202.40 252.26 203.36 245.15
  C 205.57 228.84 210.73 211.44 224.70 201.24
  C 235.29 193.50 248.55 191.30 261.81 192.63
  C 298.31 196.31 308.13 237.44 308.48 267.06
  A 0.67 0.67 0.0 0 1 307.81 267.74
  L 284.94 267.76
  A 0.87 0.87 0.0 0 1 284.07 266.93
  Q 283.42 251.89 280.53 238.27
  Q 279.12 231.62 276.00 225.17
  Z"
/>
<path fill="#ffffff" d="
  M 104.93 239.18
  Q 104.61 239.27 104.41 238.91
  A 0.54 0.54 0.0 0 1 104.47 238.29
  L 138.46 198.84
  Q 139.04 198.17 138.89 199.04
  L 131.60 242.97
  A 0.47 0.46 9.2 0 1 131.06 243.35
  Q 118.32 241.17 105.32 239.16
  Q 105.13 239.13 104.93 239.18
  Z"
/>
<path fill="#ffffff" d="
  M 362.69 250.66
  L 380.37 200.92
  A 0.33 0.33 0.0 0 1 381.01 200.97
  L 389.58 245.40
  A 0.33 0.33 0.0 0 1 389.32 245.78
  L 363.06 251.09
  A 0.33 0.33 0.0 0 1 362.69 250.66
  Z"
/>
<path fill="#e5faf3" d="
  M 275.07 228.11
  C 279.98 240.13 281.40 253.59 282.06 266.93
  Q 282.10 267.75 281.27 267.75
  L 229.92 267.72
  A 0.50 0.50 0.0 0 1 229.42 267.24
  C 228.99 256.31 228.88 244.90 231.29 234.28
  Q 232.82 227.57 235.45 223.36
  Q 240.97 214.52 251.11 213.54
  Q 268.43 211.86 275.07 228.11
  Z"
/>
<rect fill="#34d795" x="-10.88" y="-0.81" transform="translate(59.77,268.80) rotate(-0.2)" width="21.76" height="1.62" rx="0.79"/>
<ellipse fill="#a9ecd7" cx="0.00" cy="0.00" transform="translate(333.29,284.39) rotate(-0.6)" rx="3.78" ry="0.36"/>
<rect fill="#a9ecd7" x="-10.46" y="-0.37" transform="translate(401.50,289.74) rotate(-0.5)" width="20.92" height="0.74" rx="0.36"/>
<rect fill="#a9ecd7" x="-9.92" y="-0.25" transform="translate(100.58,290.51) rotate(-0.2)" width="19.84" height="0.50" rx="0.25"/>
<rect fill="#a9ecd7" x="168.31" y="292.20" width="19.92" height="0.58" rx="0.27"/>
<rect fill="#a9ecd7" x="-10.46" y="-0.43" transform="translate(366.38,306.83) rotate(0.2)" width="20.92" height="0.86" rx="0.41"/>
<rect fill="#a9ecd7" x="-10.36" y="-0.27" transform="translate(208.58,307.66) rotate(0.2)" width="20.72" height="0.54" rx="0.26"/>
</svg>
