<?xml version="1.0" encoding="iso-8859-1"?>
<!-- Uploaded to: SVG Repo, www.svgrepo.com, Generator: SVG Repo Mixer Tools -->
<svg fill="#000000" height="800px" width="800px" version="1.1" id="Capa_1" xmlns="http://www.w3.org/2000/svg" xmlns:xlink="http://www.w3.org/1999/xlink" 
	 viewBox="0 0 511 511" xml:space="preserve">
<path d="M487.5,272H487v-40.5c0-61.836-24.08-119.971-67.805-163.695S317.336,0,255.5,0S135.529,24.08,91.805,67.805
	S24,169.664,24,231.5V272h-0.5C10.542,272,0,282.542,0,295.5S10.542,319,23.5,319h0.525c-0.011,0.166-0.025,0.331-0.025,0.5
	c0,56.458,2.595,105.977,34.484,140.192C91.558,495.176,152.319,511,255.5,511c11.534,0,22.534-0.199,33.028-0.6
	c0.003,0,0.007,0,0.01,0c0.041,0,0.081-0.005,0.121-0.006c27.545-1.057,51.581-3.513,72.474-7.468
	c0.13-0.021,0.259-0.046,0.388-0.075c42.089-8.019,71.401-22.14,90.994-43.161c8.488-9.107,14.884-19.308,19.725-30.426
	c0.211-0.386,0.383-0.786,0.522-1.197C485.629,397.637,487,360.392,487,319.5c0-0.169-0.014-0.334-0.025-0.5h0.525
	c12.958,0,23.5-10.542,23.5-23.5S500.458,272,487.5,272z M39,231.5c0-57.829,22.52-112.197,63.411-153.089
	C143.303,37.52,197.671,15,255.5,15s112.197,22.52,153.089,63.411C449.48,119.303,472,173.671,472,231.5V272H39V231.5z
	 M462.645,412.039l-4.319-4.319l7.538-7.538C464.936,404.244,463.869,408.2,462.645,412.039z M399.252,476.646l-4.926-4.926
	l21.394-21.394l11.529,11.529C419.285,467.505,409.985,472.432,399.252,476.646z M348.398,489.791l-18.072-18.072l21.394-21.394
	l21.394,21.394l-16.691,16.691C353.801,488.895,351.124,489.354,348.398,489.791z M155.122,488.515l-16.796-16.796l21.394-21.394
	l21.393,21.393l-18.131,18.131C160.317,489.425,157.687,488.985,155.122,488.515z M84.008,462.037l11.711-11.711l21.394,21.394
	l-5.047,5.047C101.316,472.571,91.992,467.666,84.008,462.037z M39.035,329.641l14.078,14.078l-13.359,13.359
	C39.301,348.205,39.105,339.043,39.035,329.641z M45.011,399.617l8.102,8.102l-4.654,4.654
	C47.133,408.254,45.995,403.996,45.011,399.617z M42.326,375.719l21.394-21.394l21.394,21.393l-21.394,21.393L42.326,375.719z
	 M405.113,375.719l-21.394,21.394l-21.394-21.394l21.394-21.394L405.113,375.719z M394.326,343.719l21.394-21.394l21.394,21.394
	l-21.394,21.394L394.326,343.719z M319.719,418.326l21.394,21.394l-21.394,21.394l-21.394-21.394L319.719,418.326z M287.719,429.113
	l-21.394-21.394l21.394-21.393l21.394,21.394L287.719,429.113z M330.326,407.719l21.394-21.394l21.394,21.394l-21.394,21.394
	L330.326,407.719z M351.719,365.113l-21.394-21.394l21.394-21.393l21.394,21.394L351.719,365.113z M341.113,375.719l-21.394,21.394
	l-21.394-21.394l21.394-21.394L341.113,375.719z M287.719,365.113l-21.394-21.393l21.394-21.394l21.394,21.393L287.719,365.113z
	 M277.113,375.719l-21.394,21.393l-21.394-21.393l21.394-21.394L277.113,375.719z M191.719,418.326l21.393,21.393l-21.394,21.394
	l-21.393-21.393L191.719,418.326z M159.719,429.113l-21.394-21.394l21.394-21.394l21.394,21.394L159.719,429.113z M202.326,407.719
	l21.394-21.394l21.394,21.393l-21.394,21.393L202.326,407.719z M223.719,365.113l-21.394-21.394l21.394-21.394l21.394,21.394
	L223.719,365.113z M213.113,375.719l-21.394,21.394l-21.394-21.394l21.394-21.394L213.113,375.719z M159.719,365.113l-21.394-21.394
	l21.394-21.393l21.394,21.394L159.719,365.113z M149.113,375.719l-21.394,21.394l-21.394-21.394l21.394-21.393L149.113,375.719z
	 M95.719,365.113l-21.394-21.393l21.394-21.394l21.394,21.393L95.719,365.113z M95.719,386.326l21.394,21.394l-21.394,21.394
	l-21.394-21.394L95.719,386.326z M127.719,418.326l21.394,21.394l-21.394,21.394l-21.394-21.394L127.719,418.326z M191.719,482.325
	l12.028,12.028c-7.667-0.53-15.026-1.189-22.077-1.98L191.719,482.325z M202.325,471.719l21.394-21.394l21.394,21.394
	l-21.394,21.394L202.325,471.719z M234.325,439.719l21.394-21.393l21.394,21.394l-21.394,21.394L234.325,439.719z M287.719,450.326
	l21.394,21.394l-21.394,21.394l-21.394-21.394L287.719,450.326z M319.719,482.326l10.001,10.001
	c-7.024,0.795-14.356,1.457-21.994,1.991L319.719,482.326z M383.719,461.113l-21.394-21.394l21.394-21.394l21.394,21.394
	L383.719,461.113z M394.326,407.719l21.394-21.394l21.394,21.394l-21.394,21.394L394.326,407.719z M426.326,375.719l21.394-21.394
	l21.394,21.394l-21.394,21.394L426.326,375.719z M458.326,343.719l13.635-13.635c-0.072,9.099-0.264,17.973-0.694,26.576
	L458.326,343.719z M447.719,333.113L433.606,319h28.226L447.719,333.113z M383.719,333.113L369.606,319h28.226L383.719,333.113z
	 M319.719,333.113L305.606,319h28.226L319.719,333.113z M255.719,333.113L241.606,319h28.226L255.719,333.113z M191.719,333.113
	L177.606,319h28.226L191.719,333.113z M127.719,333.113L113.606,319h28.226L127.719,333.113z M63.719,333.113L49.606,319h28.226
	L63.719,333.113z M54.512,427.532l9.207-9.207l21.394,21.394L72.382,452.45c-1.004-0.978-1.98-1.973-2.924-2.986
	C63.332,442.892,58.433,435.548,54.512,427.532z M242.153,495.892l13.567-13.567l13.56,13.56c-4.514,0.069-9.089,0.114-13.779,0.114
	C250.959,496,246.528,495.957,242.153,495.892z M441.542,449.464c-0.874,0.938-1.779,1.859-2.705,2.767l-12.512-12.512
	l21.394-21.394l8.912,8.912C452.687,435.368,447.743,442.812,441.542,449.464z M487.5,304h-464c-4.687,0-8.5-3.813-8.5-8.5
	s3.813-8.5,8.5-8.5h464c4.687,0,8.5,3.813,8.5,8.5S492.187,304,487.5,304z"/>
</svg>